<svg xmlns="http://www.w3.org/2000/svg" viewBox="0 0 760 620">
  <rect width="760" height="620" fill="#f6dfb7"/>
  <g fill="none" stroke="#292018" stroke-width="5" stroke-linecap="round" stroke-linejoin="round">
    <path fill="#fff7e6" d="M92 455c28-86 102-128 177-107 34-78 119-112 187-70 51-58 151-45 185 24 30 61 6 136-54 166-74 37-154 24-228 25-99 1-200 37-267-38z"/>
    <path fill="#cb6e6b" d="M153 282c-55-25-57-97-6-127 49-30 114 7 111 64-3 53-55 85-105 63z"/>
    <path fill="#e9b84e" d="M554 128c30-25 83-14 97 24 15 41-16 85-59 84-48-1-74-63-38-108z"/>
    <path fill="#50755a" d="M336 187c-24-73 62-134 125-91 54 37 42 125-20 148-43 15-90-10-105-57z"/>
    <path fill="#4d7c9e" d="M438 375l76-72 79 71v95H438z"/>
    <path d="M512 303v166M474 389h35M548 389h29"/>
    <path fill="#fff7e6" d="M172 398c35-24 82 6 75 48-8 43-65 57-92 24-17-21-10-55 17-72z"/>
    <path d="M174 411c-20-17-38-17-53 1M235 415c20-15 39-13 53 6M201 441l-5 12 18 1"/>
    <path fill="#e9b84e" d="M330 452c-8-45 33-81 75-65 41 15 51 69 18 99-33 31-85 13-93-34z"/>
    <path d="M366 386c-14-42-3-80 32-113M400 388c12-44 39-72 83-84M354 418c-48-15-85-7-112 26"/>
    <path d="M121 118l23 14-25 12M653 331l29 5-18 25M276 91l18 24-27 9"/>
  </g>
</svg>
